<svg id="Capa_2" data-name="Capa 2" xmlns="http://www.w3.org/2000/svg" viewBox="0 0 484.55 91.35"><defs><style>.cls-1{fill:#fff;}</style></defs><path class="cls-1" d="M91.22,1A9,9,0,0,0,80.58,9.91c.15,3.46,1.84,6.63,3.18,9.82,4.51,10.72,4.89,22.78,0,33.44C77,68,61.7,76.73,45.64,76.9c-21.57.24-33.75-18-31.95-38.24l24.7,26.81.88,1L41,66.16l1-1.78L55.26,31,65.84,65S76.73,59.06,77,56.12L62,7.36s-8.39,3.18-10.2,4.54-15,32.2-15,32.2L18,19.83,5.3,24.37c-.71.25-1.54,3.81-1.75,4.43C-4.92,54.11,7.6,82.72,34.42,89.43a48.14,48.14,0,0,0,15.27,1.26,57.35,57.35,0,0,0,32-12.78l.32-.27c11.37-9.48,18.37-23.5,20.63-38C104.21,29.26,105.29,4,91.22,1Z"/><polygon class="cls-1" points="118.62 35.82 97.6 90.34 111.34 90.34 122.66 63.24 129.53 63.24 141.06 90.46 153.79 90.46 131.96 35.82 118.62 35.82"/><path class="cls-1" d="M177.23,52a4,4,0,0,1-1.33-.53c-1.79-1.32-.3-4.22,1.15-5.27,4.36-3.19,9.54,1.5,13.88-.47a5.19,5.19,0,0,0,1.41-.91c1.69-1.55,1.72-3.9.25-5.86s-4.49-3.21-7.13-3.81c-13.66-3.09-31.4,12.54-21.48,24.1,5.1,5.95,15.07,3.89,20.73,9.25a6.24,6.24,0,0,1,2.23,4c.17,3.65-4.44,6.36-8.46,6.82a7.21,7.21,0,0,1-6.95-3.88c-1.42-2.84-6.73-.45-8.28,1-3,2.75-1.64,7.49,1,10.16s6.41,3.94,10.27,4.14c4.13.21,8.6.36,12.51-1.22,3.52-1.43,6.31-4.28,8.49-7.3,4.7-6.48,4.85-16.1-1.14-21.85C190.33,56.45,182.81,53.5,177.23,52Z"/><path class="cls-1" d="M245.66,73.2c-4.44,1.64-5.9,7.75-15.4,4.47-16.27-5.63-10.57-32.08,6.82-31,0,0,3.11,1.38,5.25.3,2.54-1.3,1.66-11.48-9.71-11.2a24.81,24.81,0,0,0-17.48,7.37s-11.38,10.38-7.77,26.5A27.44,27.44,0,0,0,224.48,89.1c10.62,4.18,24.74.34,27.56-11.77C252,77.33,250.1,71.56,245.66,73.2Z"/><path class="cls-1" d="M295.26,38.47s-8.61-3.81-15.13-2.33c0,0-15.13.88-19.88,14.54-3.8,11-3.19,27.8,8,34.88,8,5,18.4,7.21,27.15,2.77C313.34,79.25,314.63,47,295.26,38.47ZM282.21,78.62c-4.75-.87-13.35-7.85-11-19.11A15.4,15.4,0,0,1,283.74,47C303.25,46.7,302.42,82.33,282.21,78.62Z"/><polygon class="cls-1" points="383.31 36.17 362.29 90.69 376.04 90.69 387.36 63.6 394.23 63.6 405.75 90.82 418.49 90.82 396.65 36.17 383.31 36.17"/><path class="cls-1" d="M475.58,76.67l7.08-7.58a3.44,3.44,0,0,0,.94-2.62A3.48,3.48,0,0,0,482.25,64a4.06,4.06,0,0,0-5.41.37L470.63,71l-5.71-6.55a4,4,0,0,0-5.39-.55,3.47,3.47,0,0,0-1.44,2.46,3.4,3.4,0,0,0,.85,2.64l6.54,7.51-7.54,8a3.44,3.44,0,0,0-.94,2.62,3.5,3.5,0,0,0,1.35,2.5,4,4,0,0,0,2.5.86,4,4,0,0,0,2.91-1.24l6.67-7,6.32,7.26a4.07,4.07,0,0,0,5.4.54,3.54,3.54,0,0,0,1.44-2.46,3.44,3.44,0,0,0-.85-2.64Z"/><polygon class="cls-1" points="313.23 47.81 331.69 47.81 331.69 91.35 344.63 91.35 344.63 47.81 361.75 47.81 361.75 35.95 313.23 35.95 313.23 47.81"/><path class="cls-1" d="M438.84,73.47l-4.56-9.82s-5.29.11-6.77,0-1.39,1.59-1.39,1.59v1.68s-.2,22,0,22.7.49.6.49.6h6.55l.1-13.15,5.35,6.51,6.25-6.48V90.23H452V63.65h-5.56Z"/></svg>