<svg id="Capa_2" data-name="Capa 2" xmlns="http://www.w3.org/2000/svg" viewBox="0 0 131.83 116.86"><defs><style>.cls-1{fill:#fff;}</style></defs><path class="cls-1" d="M115.68.87a11.52,11.52,0,0,0-13.63,11.44c.19,4.43,2.35,8.49,4.07,12.58,5.78,13.74,6.27,29.19,0,42.85-8.7,19-28.27,30.18-48.85,30.41C29.65,98.45,14,75,16.35,49.14L48,83.5l1.13,1.22,2.16-.34L52.6,82.1l17-42.74L83.17,82.84s14-7.55,14.24-11.33L78.23,9.05s-10.75,4.07-13.07,5.81S46,56.11,46,56.11L21.87,25,5.6,30.84c-.91.32-2,4.88-2.24,5.67C-7.5,69,8.55,105.6,42.9,114.19a61.72,61.72,0,0,0,19.57,1.62,73.43,73.43,0,0,0,41-16.37l.42-.35C118.4,86.94,127.37,69,130.26,50.39,132.33,37.1,133.71,4.75,115.68.87Z"/></svg>