<svg id="Capa_2" data-name="Capa 2" xmlns="http://www.w3.org/2000/svg" viewBox="0 0 198.35 116.86"><defs><style>.cls-1{fill:#fff;}</style></defs><path class="cls-1" d="M188.25,95.94l8.28-8.88a4,4,0,0,0,1.1-3.06,4.08,4.08,0,0,0-1.57-2.92,4.76,4.76,0,0,0-6.34.44l-7.26,7.78-6.69-7.67a4.73,4.73,0,0,0-6.31-.64,4.1,4.1,0,0,0-1.69,2.88,4,4,0,0,0,1,3.09l7.67,8.79-8.83,9.34a4,4,0,0,0,.48,6,4.73,4.73,0,0,0,6.33-.44l7.81-8.24,7.4,8.49a4.63,4.63,0,0,0,3.51,1.56,4.77,4.77,0,0,0,2.81-.92,4.13,4.13,0,0,0,1.68-2.88,4,4,0,0,0-1-3.09Z"/><path class="cls-1" d="M145.24,92.2,139.9,80.7s-6.18.12-7.93,0-1.62,1.85-1.62,1.85v2s-.23,25.76,0,26.57.58.7.58.7h7.66l.12-15.4L145,104l7.31-7.58v15.36h8.36V80.7h-6.5Z"/><path class="cls-1" d="M115.68.87a11.52,11.52,0,0,0-13.63,11.44c.19,4.43,2.35,8.49,4.07,12.58,5.78,13.74,6.27,29.19,0,42.85-8.7,19-28.27,30.18-48.85,30.41C29.65,98.45,14,75,16.35,49.14L48,83.5l1.13,1.22,2.16-.34L52.6,82.1l17-42.74L83.17,82.84s14-7.55,14.24-11.33L78.23,9.05s-10.75,4.07-13.07,5.81S46,56.11,46,56.11L21.87,25,5.6,30.84c-.91.32-2,4.88-2.24,5.67C-7.5,69,8.55,105.6,42.9,114.19a61.72,61.72,0,0,0,19.57,1.62,73.43,73.43,0,0,0,41-16.37l.42-.35C118.4,86.94,127.37,69,130.26,50.39,132.33,37.1,133.71,4.75,115.68.87Z"/></svg>