<?xml version="1.0"?>
<svg xmlns="http://www.w3.org/2000/svg" xmlns:xlink="http://www.w3.org/1999/xlink" version="1.1" id="Capa_1" x="0px" y="0px" viewBox="0 0 352.052 352.052" style="enable-background:new 0 0 352.052 352.052;" xml:space="preserve" width="512px" height="512px" class=""><g><path d="M348.104,170.45c-6.35-8.832-17.508-8.832-26.474-8.832c-36.252,0-67.936-12.516-89.215-35.241  c-29.717-31.738-63.651-37.848-80.796-38.721V11.263c0-4.024-2.671-7.559-6.542-8.658c-3.873-1.097-8.001,0.506-10.115,3.93  L1.342,222.948c-2.188,3.543-1.659,8.124,1.278,11.076l112.543,113.114c1.703,1.712,4.005,2.652,6.379,2.652  c0.498,0,0.999-0.041,1.498-0.125c2.88-0.486,5.345-2.339,6.612-4.971c8.383-17.416,36.809-62.616,67.254-62.616  c5.363,0,10.542,1.334,15.832,4.078c14.409,7.474,27.696,11.264,39.49,11.264c21.462,0,32.65-12.029,37.479-19.369  c16.799-1.04,30.385-7.064,40.44-17.943c17.816-19.276,18.178-47.547,17.919-55.215C353.375,188.446,353.374,177.78,348.104,170.45z   M199.858,168.796c-0.266,0.018-0.528,0.026-0.787,0.026c-6.087,0-11.16-4.752-11.55-10.818c-0.415-6.339,4.42-11.859,10.78-12.293  c0.27-0.018,0.531-0.027,0.791-0.027c6.079,0,11.151,4.747,11.549,10.806C211.053,162.847,206.217,168.364,199.858,168.796z" data-original="#000000" class="active-path" data-old_color="#000000" fill="#FFFFFF"/></g> </svg>
